<svg xmlns="http://www.w3.org/2000/svg" version="1.0" width="1536.000000pt" height="1536.000000pt" viewBox="0 0 1536.000000 1536.000000" preserveAspectRatio="xMidYMid meet">

<g transform="translate(0.000000,1536.000000) scale(0.100000,-0.100000)" fill="#2fcf9b" stroke="none">
<path d="M0 7680 l0 -7680 7680 0 7680 0 0 7680 0 7680 -7680 0 -7680 0 0 -7680z m8155 5810 c424 -34 911 -139 1306 -281 960 -344 1768 -939 2402 -1766 5 -7 7 -13 4 -13 -2 0 -60 61 -128 136 -249 275 -568 546 -894 759 -1105 724 -2431 957 -3724 654 -1274 -299 -2386 -1134 -3042 -2283 l-72 -126 -1286 0 c-724 0 -1279 4 -1271 9 14 8 78 26 510 141 129 34 375 101 820 221 80 21 241 64 358 96 l214 57 71 105 c219 327 439 589 748 886 640 618 1468 1069 2354 1280 330 79 621 119 1010 139 105 5 484 -3 620 -14z m354 -625 c860 -36 1759 -367 2476 -910 290 -219 603 -523 801 -777 23 -30 -2 -22 689 -208 187 -50 516 -139 730 -196 215 -58 460 -124 545 -146 85 -23 159 -45 165 -50 5 -4 -569 -8 -1275 -8 l-1285 0 -40 62 c-67 105 -236 328 -332 438 -133 154 -399 410 -553 534 -247 197 -533 377 -815 512 -830 396 -1752 507 -2663 319 -882 -182 -1685 -652 -2301 -1350 -48 -54 -50 -56 -23 -15 105 158 464 540 676 719 638 540 1379 885 2201 1025 225 39 614 68 795 60 41 -2 135 -6 209 -9z m-2284 -2712 c242 -58 416 -138 600 -277 519 -391 723 -1081 504 -1702 -51 -145 -122 -274 -229 -414 l-57 -75 64 -85 c574 -758 324 -1836 -523 -2258 -177 -88 -353 -135 -568 -152 -96 -8 -584 -10 -1536 -8 l-1395 3 -65 22 c-251 86 -394 339 -335 591 40 168 152 295 321 360 l69 27 1480 5 1480 5 52 22 c85 34 135 67 191 127 64 67 116 173 132 266 33 197 -76 414 -256 512 -113 61 0 58 -1951 58 l-1783 0 0 -162 c0 -106 -5 -181 -14 -214 -35 -133 -139 -260 -261 -320 -274 -134 -590 -4 -696 286 l-24 65 0 1000 c0 929 1 1007 19 1105 83 474 388 879 821 1090 145 71 332 127 475 143 19 2 791 3 1715 3 l1680 -2 90 -21z m6090 12 c219 -58 375 -258 375 -485 0 -131 -47 -247 -139 -343 -59 -63 -108 -95 -194 -130 l-52 -22 -1480 -5 -1480 -5 -59 -23 c-33 -12 -78 -33 -100 -46 -56 -33 -148 -132 -179 -192 -53 -105 -57 -135 -57 -446 l0 -288 1678 -2 1677 -3 57 -21 c98 -38 200 -120 254 -206 13 -21 35 -71 49 -112 42 -126 31 -266 -31 -389 -33 -65 -142 -173 -211 -210 -110 -59 -40 -57 -1830 -57 l-1642 0 -3 -792 c-3 -734 -5 -797 -22 -848 -51 -156 -167 -276 -321 -332 -80 -29 -226 -31 -305 -4 -158 53 -280 172 -333 326 l-22 65 -3 1540 c-2 1074 0 1578 8 1665 21 235 91 455 204 643 81 135 143 213 260 324 226 217 529 362 837 402 35 5 726 9 1534 10 1291 1 1478 -1 1530 -14z m1250 0 c87 -23 152 -62 226 -135 158 -156 194 -373 95 -575 -101 -206 -335 -314 -564 -260 -86 21 -150 55 -219 119 -215 200 -217 531 -2 730 129 119 299 164 464 121z m-11432 -4028 c133 -62 236 -184 272 -322 83 -321 -154 -628 -484 -627 -113 0 -197 27 -287 91 -335 236 -256 754 134 882 45 15 81 18 172 16 109 -3 119 -5 193 -40z m1947 -1473 c330 -573 763 -1063 1288 -1458 1138 -855 2619 -1155 4007 -811 955 237 1763 731 2460 1505 67 75 36 28 -74 -108 -318 -399 -726 -773 -1156 -1062 -735 -493 -1584 -788 -2475 -859 -139 -11 -665 -11 -810 0 -649 51 -1329 240 -1900 530 -524 265 -924 554 -1341 969 -262 261 -470 513 -654 792 l-70 106 -100 27 c-55 15 -242 65 -415 112 -173 46 -380 102 -460 123 -80 21 -228 61 -330 89 -102 27 -279 75 -395 106 -115 30 -214 57 -220 60 -5 2 571 4 1281 4 l1291 1 73 -126z m9830 116 c-14 -5 -137 -38 -275 -75 -137 -37 -331 -88 -430 -115 -99 -27 -283 -76 -410 -110 -126 -34 -302 -81 -390 -105 -88 -24 -257 -69 -375 -101 -206 -54 -216 -58 -245 -93 -325 -388 -673 -703 -1045 -947 -626 -409 -1301 -647 -2060 -726 -164 -17 -696 -17 -860 0 -860 89 -1631 389 -2305 897 -313 236 -646 567 -869 865 l-49 65 73 -80 c764 -840 1720 -1314 2835 -1406 197 -16 626 -6 822 20 689 92 1279 316 1843 699 437 297 835 698 1125 1135 l58 87 1291 -1 c719 0 1280 -4 1266 -9z" fill="#2fcf9b"/>
<path d="M2764 9152 c-139 -49 -227 -127 -289 -257 -49 -101 -56 -165 -53 -455 l3 -255 1735 -3 c1228 -2 1758 0 1815 8 225 31 399 202 436 426 10 59 9 84 -5 150 -42 206 -173 347 -372 399 -51 13 -261 15 -1624 15 l-1565 0 -81 -28z" fill="#2fcf9b"/>
</g>
</svg>